<svg width="37" height="37" viewBox="0 0 37 37" fill="none" xmlns="http://www.w3.org/2000/svg">
<path d="M18.5 36.4167C28.3542 36.4167 36.4167 28.3542 36.4167 18.5C36.4167 8.64583 28.3542 0.583328 18.5 0.583328C8.64584 0.583328 0.583344 8.64583 0.583344 18.5C0.583344 28.3542 8.64584 36.4167 18.5 36.4167ZM19.0375 10.0612C19.3958 9.73874 19.8258 9.54166 20.2917 9.54166C20.7754 9.54166 21.1875 9.73874 21.5638 10.0612C21.9042 10.4375 22.0833 10.8675 22.0833 11.3333C22.0833 11.8171 21.9042 12.2292 21.5638 12.6054C21.1875 12.9458 20.7754 13.125 20.2917 13.125C19.8258 13.125 19.3958 12.9458 19.0375 12.6054C18.6971 12.2292 18.5 11.8171 18.5 11.3333C18.5 10.8675 18.6971 10.4375 19.0375 10.0612ZM14.5583 18.4462C14.5583 18.4462 18.4463 15.3646 19.8617 15.2392C21.1875 15.1317 20.9188 16.6546 20.7933 17.4429L20.7754 17.5504C20.5246 18.5 20.22 19.6467 19.9154 20.7396C19.2346 23.23 18.5717 25.6667 18.7329 26.1146C18.9121 26.7237 20.0229 25.9533 20.8292 25.4158C20.9367 25.3442 21.0263 25.2725 21.1158 25.2187C21.1158 25.2187 21.2592 25.0754 21.4025 25.2725C21.4383 25.3262 21.4742 25.38 21.51 25.4158C21.6713 25.6667 21.7608 25.7562 21.5458 25.8996L21.4742 25.9354C21.08 26.2042 19.3958 27.3867 18.715 27.8167C17.9804 28.3004 15.1675 29.9129 15.5975 26.7775C15.9738 24.5737 16.4754 22.6746 16.8696 21.1875C17.6042 18.5 17.9267 17.2817 16.2783 18.3387C15.6154 18.7329 15.2213 18.9837 14.9883 19.145C14.7913 19.2883 14.7733 19.2883 14.6479 19.0554L14.5942 18.9479L14.5046 18.8046C14.3792 18.6254 14.3792 18.6075 14.5583 18.4462Z" fill="#117ADC"/>
</svg>
