<svg width="43" height="41" viewBox="0 0 43 41" fill="none" xmlns="http://www.w3.org/2000/svg">
<path fill-rule="evenodd" clip-rule="evenodd" d="M22.1358 0.468142C21.9361 0.377336 21.7193 0.330353 21.5 0.330353C21.2807 0.330353 21.0639 0.377336 20.8642 0.468142L12.8078 4.13543L21.4939 8.09143L30.186 4.13236L22.1358 0.468142ZM11.3643 16.2307V6.85057L19.9643 10.7666V21.1327L12.2581 17.6282C11.9898 17.5062 11.7623 17.3095 11.6027 17.0617C11.4431 16.8139 11.3582 16.5255 11.3581 16.2307H11.3643ZM23.0357 36.8461V26.5876L31.1811 30.2979V40.6639L23.4841 37.1594C23.316 37.083 23.1661 36.9769 23.0357 36.8461ZM34.2526 40.6701V30.2979L42.8618 26.3787V35.7619C42.8617 36.0567 42.7768 36.3451 42.6172 36.593C42.4577 36.8408 42.2301 37.0374 41.9618 37.1594L34.2526 40.6701ZM19.9581 26.5876V36.8584C19.8304 36.9836 19.6817 37.0854 19.5189 37.1594L11.8096 40.6701V30.2979L19.9581 26.5876ZM8.73821 30.2979V40.6639L1.04428 37.1594C0.775984 37.0374 0.548472 36.8408 0.388898 36.593C0.229324 36.3451 0.14443 36.0567 0.144348 35.7619V26.3818L8.74435 30.2979H8.73821ZM23.0296 21.1389V10.7636L31.6388 6.84443V16.2307C31.6387 16.5255 31.5538 16.8139 31.3942 17.0617C31.2347 17.3095 31.0071 17.5062 30.7389 17.6282L23.0296 21.1389ZM32.0841 20.0024C32.2838 19.9116 32.5006 19.8646 32.7199 19.8646C32.9393 19.8646 33.156 19.9116 33.3557 20.0024L41.4029 23.6636L32.7107 27.6226L24.0339 23.6636L32.0872 19.9963L32.0841 20.0024ZM9.64428 20.0024C9.84394 19.9116 10.0607 19.8646 10.2801 19.8646C10.4994 19.8646 10.7162 19.9116 10.9158 20.0024L18.963 23.6636L10.2739 27.6257L1.59099 23.6636L9.64428 20.0024Z" fill="#117ADC"/>
</svg>
