<svg width="29" height="37" viewBox="0 0 29 37" fill="none" xmlns="http://www.w3.org/2000/svg">
<path d="M25.25 0.583328H14.5V13.125L10.0208 10.4375L5.54167 13.125V0.583328H3.75C1.77917 0.583328 0.166666 2.19583 0.166666 4.16666V32.8333C0.166666 34.8042 1.77917 36.4167 3.75 36.4167H25.25C27.2208 36.4167 28.8333 34.8042 28.8333 32.8333V4.16666C28.8333 3.2163 28.4558 2.30487 27.7838 1.63286C27.1118 0.960857 26.2004 0.583328 25.25 0.583328ZM24.6767 29.9846C24.4796 30.1458 22.5087 31.4896 21.7562 31.9375C21.0037 32.4571 18.0833 34.1233 18.5492 30.8983C19.6779 24.3767 21.8637 20.5067 19.2479 22.1908C18.5671 22.6029 18.1729 22.8537 17.9221 22.9792C17.6892 23.1762 17.7071 23.1583 17.51 22.8179C17.3129 22.4775 17.2412 22.4954 17.4921 22.3162C17.4921 22.3162 21.4875 19.1092 22.9567 19.0017C24.3542 18.8762 24.0137 20.5962 23.8883 21.3846C23.0642 24.6992 21.5592 29.5187 21.7921 30.2175C21.9892 30.9162 23.4583 29.8054 24.2467 29.25C24.2467 29.25 24.3542 29.1246 24.5513 29.3396C24.7483 29.6442 24.9454 29.7875 24.6767 29.9846ZM23.4046 16.8158C22.3833 16.8158 21.5592 15.9917 21.5592 14.9704C21.5592 13.9492 22.3833 13.125 23.4046 13.125C24.4258 13.125 25.25 13.9492 25.25 14.9704C25.25 15.9917 24.4258 16.8158 23.4046 16.8158Z" fill="#117ADC"/>
</svg>
