<svg width="20" height="20" viewBox="0 0 20 20" fill="none" xmlns="http://www.w3.org/2000/svg">
<path d="M9.55883 18.3334C6.23126 18.3334 4.56748 18.3334 3.53374 17.3571C2.5 16.3808 2.5 14.8094 2.5 11.6667V8.33342C2.5 5.19071 2.5 3.61937 3.53374 2.64306C4.56748 1.66675 6.23127 1.66675 9.55883 1.66675H10.4412C13.7687 1.66675 15.4325 1.66675 16.4663 2.64306C17.5 3.61937 17.5 5.19071 17.5 8.33342M9.58333 18.3334H10.8333" stroke="black" stroke-width="2" stroke-linecap="round"/>
<path d="M6.66663 5.83325H13.3333" stroke="black" stroke-width="2" stroke-linecap="round"/>
<path d="M6.66663 10H10.8333" stroke="black" stroke-width="2" stroke-linecap="round"/>
<path d="M14.5834 15.4913L13.8315 18.1189C13.7977 18.2508 13.9283 18.3653 14.055 18.3148L15.7095 17.654C15.789 17.6223 15.8777 17.6223 15.9572 17.654L17.6276 18.3211C17.7512 18.3704 17.88 18.2623 17.8526 18.1323L17.2158 15.4092M18.3334 13.3292C18.3334 11.9508 17.2141 10.8333 15.8334 10.8333C14.4526 10.8333 13.3334 11.9508 13.3334 13.3292C13.3334 14.7077 14.4526 15.8251 15.8334 15.8251C17.2141 15.8251 18.3334 14.7077 18.3334 13.3292Z" stroke="black" stroke-width="2" stroke-linejoin="round"/>
</svg>
