<svg width="40" height="40" viewBox="0 0 40 40" fill="none" xmlns="http://www.w3.org/2000/svg">
<rect x="-0.5" y="0.5" width="39" height="39" rx="19.5" transform="matrix(-1 0 0 1 39 0)" stroke="#37514D"/>
<path fill-rule="evenodd" clip-rule="evenodd" d="M18.7803 27.0303C18.4874 27.3232 18.0126 27.3232 17.7197 27.0303L11.4697 20.7803C11.1768 20.4874 11.1768 20.0126 11.4697 19.7197L17.7197 13.4697C18.0126 13.1768 18.4874 13.1768 18.7803 13.4697C19.0732 13.7626 19.0732 14.2374 18.7803 14.5303L13.8107 19.5H28.25C28.6642 19.5 29 19.8358 29 20.25C29 20.6642 28.6642 21 28.25 21H13.8107L18.7803 25.9697C19.0732 26.2626 19.0732 26.7374 18.7803 27.0303Z" fill="#37514D"/>
</svg>
