<svg width="40" height="40" viewBox="0 0 40 40" fill="none" xmlns="http://www.w3.org/2000/svg">
<rect x="0.5" y="0.5" width="39" height="39" rx="19.5" stroke="#37514D"/>
<path fill-rule="evenodd" clip-rule="evenodd" d="M21.2197 27.0303C21.5126 27.3232 21.9874 27.3232 22.2803 27.0303L28.5303 20.7803C28.8232 20.4874 28.8232 20.0126 28.5303 19.7197L22.2803 13.4697C21.9874 13.1768 21.5126 13.1768 21.2197 13.4697C20.9268 13.7626 20.9268 14.2374 21.2197 14.5303L26.1893 19.5H11.75C11.3358 19.5 11 19.8358 11 20.25C11 20.6642 11.3358 21 11.75 21H26.1893L21.2197 25.9697C20.9268 26.2626 20.9268 26.7374 21.2197 27.0303Z" fill="#37514D"/>
</svg>
