<svg width="25" height="24" viewBox="0 0 25 24" fill="none" xmlns="http://www.w3.org/2000/svg">
<g clip-path="url(#clip0_1_467)">
<path d="M21.3824 20.4495H17.8263V14.8804C17.8263 13.5525 17.8026 11.8429 15.9768 11.8429C14.1247 11.8429 13.8413 13.2899 13.8413 14.7838V20.4491H10.2854V8.99697H13.6991V10.562H13.7469C14.0885 9.97787 14.5822 9.49732 15.1753 9.17154C15.7685 8.84577 16.4389 8.68697 17.1151 8.71206C20.7194 8.71206 21.3839 11.0828 21.3839 14.167L21.3824 20.4495ZM6.27285 7.43162C5.13313 7.43181 4.20904 6.508 4.20885 5.36828C4.20866 4.22856 5.13238 3.30447 6.2721 3.30428C7.41182 3.304 8.33591 4.22781 8.3361 5.36753C8.3362 5.91484 8.11888 6.43978 7.73195 6.82687C7.34502 7.21396 6.82017 7.4315 6.27285 7.43162ZM8.05091 20.4496H4.49113V8.99697H8.05082L8.05091 20.4496ZM23.1552 0.00174674H2.70426C1.7377 -0.00912826 0.94504 0.765153 0.933228 1.73172V22.2679C0.944665 23.235 1.73723 24.01 2.70416 23.9999H23.1552C24.1242 24.0119 24.9198 23.2368 24.9332 22.2679V1.73012C24.9194 0.761684 24.1237 -0.0125033 23.1552 0.00015299" fill="#0A66C2"/>
</g>
<defs>
<clipPath id="clip0_1_467">
<rect width="24" height="24" fill="white" transform="translate(0.93335)"/>
</clipPath>
</defs>
</svg>
