<svg width="168" height="42" viewBox="0 0 168 42" fill="none" xmlns="http://www.w3.org/2000/svg">
<g clip-path="url(#clip0_125_639)">
<path opacity="0.898" fill-rule="evenodd" clip-rule="evenodd" d="M83.4569 -0.18103C83.9395 -0.18103 84.4225 -0.18103 84.9052 -0.18103C86.7438 0.81404 87.1663 2.26232 86.1724 4.1638C83.8649 5.54002 82.3562 4.93656 81.6465 2.35345C81.8493 1.1905 82.4529 0.345675 83.4569 -0.18103Z" fill="#FDCA28"/>
<path opacity="0.885" fill-rule="evenodd" clip-rule="evenodd" d="M58.1121 0.905151C58.7989 1.70081 59.161 2.66632 59.1983 3.8017C54.7926 6.07951 52.1376 9.7002 51.2327 14.6638C51.2682 15.4071 51.0267 16.0105 50.5086 16.4741C49.2787 9.3998 51.8131 4.21015 58.1121 0.905151Z" fill="#F8C72A"/>
<path fill-rule="evenodd" clip-rule="evenodd" d="M58.1121 -0.18103C58.3536 -0.18103 58.5947 -0.18103 58.8362 -0.18103C60.0694 0.401531 61.3971 0.823943 62.819 1.08621C61.6723 2.23276 60.526 3.37931 59.3793 4.52587C59.2113 4.31065 59.1508 4.06926 59.1983 3.80173C59.161 2.66635 58.7989 1.70083 58.1121 0.905177C58.1121 0.543108 58.1121 0.181039 58.1121 -0.18103Z" fill="#296DB8"/>
<path opacity="0.941" fill-rule="evenodd" clip-rule="evenodd" d="M106.629 41.819C104.819 41.819 103.009 41.819 101.198 41.819C97.1946 41.0778 94.298 38.8453 92.5087 35.1207C93.3838 34.532 94.289 33.9889 95.2242 33.4914C97.8112 37.8297 101.613 39.459 106.629 38.3793C110.415 37.38 111.803 35.0264 110.793 31.319C110.371 30.8965 109.948 30.4741 109.526 30.0517C105.467 28.4933 101.363 27.045 97.2156 25.7069C93.3733 22.8582 92.5887 19.2978 94.8621 15.0259C98.0259 11.5175 101.948 10.2503 106.629 11.2241C109.939 11.9701 112.353 13.8408 113.871 16.8362C113.104 17.5241 112.258 18.1275 111.336 18.6465C109.006 14.8296 105.626 13.4417 101.198 14.4827C96.9125 15.9979 95.9469 18.6531 98.3018 22.4483C98.9053 22.8103 99.5085 23.1724 100.112 23.5345C103.66 24.4758 107.16 25.562 110.612 26.7931C114.823 29.6198 115.729 33.3008 113.328 37.8362C111.481 39.8736 109.248 41.2013 106.629 41.819Z" fill="#FDCB29"/>
<path opacity="0.941" fill-rule="evenodd" clip-rule="evenodd" d="M136.681 41.819C134.871 41.819 133.06 41.819 131.25 41.819C123.018 40.0398 118.794 34.9104 118.578 26.4311C118.695 19.0724 122.195 14.1241 129.078 11.5862C139.127 9.57819 145.463 13.5006 148.086 23.3535C148.267 24.9178 148.327 26.4868 148.267 28.0604C139.457 28.0604 130.646 28.0604 121.836 28.0604C123.642 35.9539 128.59 39.3935 136.681 38.3793C139.77 37.8203 142.184 36.2515 143.922 33.6724C144.837 33.6577 145.681 33.9594 146.457 34.5776C146.849 34.8908 146.909 35.2529 146.638 35.6638C144.132 39.0578 140.813 41.1093 136.681 41.819ZM130.888 14.3017C138.646 13.4972 143.353 16.8765 145.009 24.4397C137.285 24.9224 129.56 24.9224 121.836 24.4397C122.837 19.2173 125.854 15.838 130.888 14.3017Z" fill="#FDCB29"/>
<path opacity="0.932" fill-rule="evenodd" clip-rule="evenodd" d="M75.8534 11.0431C76.2155 11.0431 76.5776 11.0431 76.9396 11.0431C76.9396 12.1293 76.9396 13.2155 76.9396 14.3017C71.06 14.69 67.8615 17.828 67.3448 23.7155C67.1638 29.5073 67.1033 35.3004 67.1638 41.0948C66.0776 41.0948 64.9914 41.0948 63.9052 41.0948C63.9052 31.319 63.9052 21.5431 63.9052 11.7672C64.9914 11.7672 66.0776 11.7672 67.1638 11.7672C67.1037 13.3408 67.1641 14.9098 67.3448 16.4741C69.2323 13.1483 72.0687 11.338 75.8534 11.0431Z" fill="#FECB29"/>
<path opacity="0.938" fill-rule="evenodd" clip-rule="evenodd" d="M167.819 11.0431C167.819 12.1293 167.819 13.2155 167.819 14.3017C162.106 14.644 158.907 17.6613 158.224 23.3535C158.043 29.266 157.983 35.1798 158.043 41.0949C156.957 41.0949 155.871 41.0949 154.784 41.0949C154.784 31.319 154.784 21.5431 154.784 11.7673C155.871 11.7673 156.957 11.7673 158.043 11.7673C157.983 13.3409 158.043 14.9098 158.224 16.4742C160.351 12.8441 163.549 11.0338 167.819 11.0431Z" fill="#FECB29"/>
<path opacity="0.928" fill-rule="evenodd" clip-rule="evenodd" d="M82.7328 11.7672C83.819 11.7672 84.9052 11.7672 85.9914 11.7672C85.9914 21.5431 85.9914 31.3189 85.9914 41.0948C84.9052 41.0948 83.819 41.0948 82.7328 41.0948C82.7328 31.3189 82.7328 21.5431 82.7328 11.7672Z" fill="#FECC28"/>
<path fill-rule="evenodd" clip-rule="evenodd" d="M56.6638 17.9224C54.9143 17.3686 53.1039 17.0065 51.2327 16.8362C50.988 17.2351 50.7468 17.5971 50.5086 17.9224C50.5086 17.4397 50.5086 16.9569 50.5086 16.4741C51.0267 16.0105 51.2682 15.4071 51.2327 14.6638C52.004 14.0747 52.7281 13.4109 53.4052 12.6724C54.3849 11.9817 55.4711 11.68 56.6638 11.7672C56.6638 13.819 56.6638 15.8707 56.6638 17.9224Z" fill="#1EA5E4"/>
<path opacity="0.946" fill-rule="evenodd" clip-rule="evenodd" d="M-0.18103 11.7672C3.55021 11.3692 6.26572 12.8175 7.96552 16.1121C8.56022 17.887 8.98261 19.6974 9.23276 21.5431C7.14507 21.0709 5.09334 21.0709 3.07759 21.5431C2.06392 18.5022 0.977714 15.485 -0.18103 12.4914C-0.18103 12.25 -0.18103 12.0086 -0.18103 11.7672Z" fill="#0B9ADD"/>
<path opacity="0.977" fill-rule="evenodd" clip-rule="evenodd" d="M29.5086 22.6293C27.9826 23.3304 26.2929 23.5718 24.4396 23.3534C23.8487 22.2464 23.4263 21.0395 23.1724 19.7327C22.5293 20.854 22.1069 22.0609 21.9052 23.3534C20.0244 23.4695 18.214 23.3488 16.4741 22.9913C17.4967 19.2632 18.4622 15.5218 19.3707 11.7672C21.7845 11.7672 24.1982 11.7672 26.6121 11.7672C27.5776 15.3879 28.5431 19.0086 29.5086 22.6293Z" fill="#0D98DC"/>
<path opacity="0.962" fill-rule="evenodd" clip-rule="evenodd" d="M43.2672 20.4569C41.2454 20.1576 39.3142 19.6749 37.4741 19.0086C38.0513 13.7203 40.9478 11.4272 46.1638 12.1293C45.331 14.991 44.3654 17.7669 43.2672 20.4569Z" fill="#099DE0"/>
<path fill-rule="evenodd" clip-rule="evenodd" d="M56.6638 17.9224C56.6638 20.5775 56.6638 23.2327 56.6638 25.8879C56.4799 25.0399 56.1178 24.2554 55.5776 23.5345C53.8766 23.4073 52.1872 23.2263 50.5086 22.9914C50.5086 25.4052 50.5086 27.8189 50.5086 30.2327C50.5086 34.0948 50.5086 37.9567 50.5086 41.8189C50.3881 41.8189 50.2671 41.8189 50.1466 41.8189C50.0267 33.7908 50.1476 25.8253 50.5086 17.9224C50.7469 17.5971 50.988 17.235 51.2328 16.8362C53.1039 17.0065 54.9143 17.3686 56.6638 17.9224Z" fill="#3594D5"/>
<path opacity="0.97" fill-rule="evenodd" clip-rule="evenodd" d="M9.23275 21.5431C10.062 23.8876 10.7861 26.3014 11.4052 28.7844C9.35343 28.7844 7.30173 28.7844 5.24999 28.7844C4.4525 26.392 3.72836 23.9783 3.07758 21.5431C5.09332 21.0709 7.14506 21.0709 9.23275 21.5431Z" fill="#1883CB"/>
<path opacity="0.958" fill-rule="evenodd" clip-rule="evenodd" d="M37.4741 19.0087C39.3141 19.6749 41.2454 20.1577 43.2672 20.4569C42.8233 22.8732 42.0992 25.1663 41.0948 27.3363C39.1639 27.3363 37.2326 27.3363 35.3017 27.3363C35.7515 24.4493 36.4755 21.6735 37.4741 19.0087Z" fill="#1686CE"/>
<path fill-rule="evenodd" clip-rule="evenodd" d="M56.6638 25.8879C56.7822 29.574 56.6616 33.1947 56.3017 36.75C56.4205 34.804 56.2999 32.873 55.9396 30.9569C54.1311 30.6955 52.3208 30.4542 50.5086 30.2327C50.5086 27.8189 50.5086 25.4051 50.5086 22.9913C52.1872 23.2263 53.8766 23.4073 55.5776 23.5344C56.1178 24.2554 56.4798 25.0398 56.6638 25.8879Z" fill="#2279C3"/>
<path opacity="0.968" fill-rule="evenodd" clip-rule="evenodd" d="M16.4741 22.9913C18.214 23.3488 20.0243 23.4694 21.9051 23.3534C21.1098 25.7399 20.3857 28.1537 19.7327 30.5948C17.9224 30.5948 16.112 30.5948 14.3017 30.5948C14.8641 27.9783 15.5883 25.4438 16.4741 22.9913Z" fill="#1D78C2"/>
<path opacity="0.984" fill-rule="evenodd" clip-rule="evenodd" d="M29.5086 22.6293C30.4141 25.3488 31.259 28.1247 32.0431 30.9569C30.2327 30.9569 28.4224 30.9569 26.6121 30.9569C25.7198 28.4744 24.9956 25.9399 24.4396 23.3534C26.2929 23.5718 27.9826 23.3304 29.5086 22.6293Z" fill="#1D78C2"/>
<path opacity="0.964" fill-rule="evenodd" clip-rule="evenodd" d="M35.3017 27.3362C37.2326 27.3362 39.1639 27.3362 41.0948 27.3362C40.4272 29.8866 39.703 32.4211 38.9224 34.9396C35.1893 34.2144 31.4479 34.0937 27.6983 34.5776C27.1917 33.4194 26.8296 32.2125 26.6121 30.9569C28.4224 30.9569 30.2327 30.9569 32.0431 30.9569C32.2938 31.9563 32.6559 32.9218 33.1293 33.8534C33.8601 31.6419 34.5842 29.4695 35.3017 27.3362Z" fill="#2569B6"/>
<path opacity="0.968" fill-rule="evenodd" clip-rule="evenodd" d="M5.25 28.7844C7.30174 28.7844 9.35344 28.7844 11.4052 28.7844C11.8375 30.6247 12.3806 32.4351 13.0345 34.2155C13.3522 32.9293 13.7746 31.7224 14.3017 30.5948C16.1121 30.5948 17.9224 30.5948 19.7328 30.5948C19.236 32.3512 18.6326 34.0409 17.9224 35.6637C14.4224 35.6637 10.9224 35.6637 7.42241 35.6637C6.69628 33.365 5.97215 31.0718 5.25 28.7844Z" fill="#2766B3"/>
<path fill-rule="evenodd" clip-rule="evenodd" d="M50.5086 30.2328C52.3208 30.4542 54.1311 30.6956 55.9396 30.9569C56.2999 32.873 56.4205 34.8041 56.3017 36.75C55.6036 39.2584 54.0344 40.9479 51.5948 41.819C51.2327 41.819 50.8707 41.819 50.5086 41.819C50.5086 37.9568 50.5086 34.0949 50.5086 30.2328Z" fill="#2F5FAD"/>
<path opacity="0.98" fill-rule="evenodd" clip-rule="evenodd" d="M38.9224 34.9396C38.2378 38.5176 36.1862 40.8109 32.7673 41.8189C31.9225 41.8189 31.0776 41.8189 30.2328 41.8189C29.0611 39.5607 28.2163 37.1471 27.6983 34.5775C31.4479 34.0937 35.1893 34.2144 38.9224 34.9396Z" fill="#2F58A8"/>
<path opacity="0.973" fill-rule="evenodd" clip-rule="evenodd" d="M7.42242 35.6638C10.9224 35.6638 14.4224 35.6638 17.9224 35.6638C17.4406 37.7135 16.9579 39.765 16.4741 41.819C15.2673 41.819 14.0603 41.819 12.8535 41.819C9.90629 40.8012 8.09595 38.7494 7.42242 35.6638Z" fill="#3155A5"/>
</g>
<defs>
<clipPath id="clip0_125_639">
<rect width="168" height="42" fill="white"/>
</clipPath>
</defs>
</svg>
