<svg width="10" height="18" viewBox="0 0 10 18" fill="none" xmlns="http://www.w3.org/2000/svg">
<path d="M1.66667 17.3083C1.49444 17.3083 1.34444 17.2444 1.21667 17.1167C1.08889 16.9889 1.025 16.8389 1.025 16.6667C1.025 16.4944 1.08889 16.3444 1.21667 16.2167C1.34444 16.0889 1.49444 16.025 1.66667 16.025C1.83889 16.025 1.98889 16.0889 2.11667 16.2167C2.24444 16.3444 2.30833 16.4944 2.30833 16.6667C2.30833 16.8389 2.24444 16.9889 2.11667 17.1167C1.98889 17.2444 1.83889 17.3083 1.66667 17.3083ZM5 17.3083C4.82778 17.3083 4.67778 17.2444 4.55 17.1167C4.42222 16.9889 4.35833 16.8389 4.35833 16.6667C4.35833 16.4944 4.42222 16.3444 4.55 16.2167C4.67778 16.0889 4.82778 16.025 5 16.025C5.17222 16.025 5.32222 16.0889 5.45 16.2167C5.57778 16.3444 5.64167 16.4944 5.64167 16.6667C5.64167 16.8389 5.57778 16.9889 5.45 17.1167C5.32222 17.2444 5.17222 17.3083 5 17.3083ZM8.33333 17.3083C8.16111 17.3083 8.01111 17.2444 7.88333 17.1167C7.75556 16.9889 7.69167 16.8389 7.69167 16.6667C7.69167 16.4944 7.75556 16.3444 7.88333 16.2167C8.01111 16.0889 8.16111 16.025 8.33333 16.025C8.50556 16.025 8.65556 16.0889 8.78333 16.2167C8.91111 16.3444 8.975 16.4944 8.975 16.6667C8.975 16.8389 8.91111 16.9889 8.78333 17.1167C8.65556 17.2444 8.50556 17.3083 8.33333 17.3083ZM5 8.33333C4.53 8.33333 4.13472 8.17306 3.81417 7.8525C3.49361 7.53194 3.33333 7.13667 3.33333 6.66667V1.66667C3.33333 1.19667 3.49361 0.801389 3.81417 0.480833C4.13472 0.160278 4.53 0 5 0C5.47 0 5.86528 0.160278 6.18583 0.480833C6.50639 0.801389 6.66667 1.19667 6.66667 1.66667V6.66667C6.66667 7.13667 6.50639 7.53194 6.18583 7.8525C5.86528 8.17306 5.47 8.33333 5 8.33333ZM4.58333 14.5833V11.6792C3.27778 11.5492 2.1875 11.0083 1.3125 10.0567C0.4375 9.105 0 7.975 0 6.66667H0.833333C0.833333 7.81944 1.23972 8.80222 2.0525 9.615C2.86528 10.4278 3.84778 10.8339 5 10.8333C6.15222 10.8328 7.135 10.4264 7.94833 9.61417C8.76167 8.80194 9.16778 7.81944 9.16667 6.66667H10C10 7.97556 9.5625 9.10556 8.6875 10.0567C7.8125 11.0078 6.72222 11.5486 5.41667 11.6792V14.5833H4.58333ZM5 7.5C5.23611 7.5 5.43417 7.42 5.59417 7.26C5.75417 7.1 5.83389 6.90222 5.83333 6.66667V1.66667C5.83333 1.43056 5.75333 1.23278 5.59333 1.07333C5.43333 0.913889 5.23556 0.833889 5 0.833333C4.76444 0.832778 4.56667 0.912778 4.40667 1.07333C4.24667 1.23389 4.16667 1.43167 4.16667 1.66667V6.66667C4.16667 6.90278 4.24667 7.10083 4.40667 7.26083C4.56667 7.42083 4.76444 7.50056 5 7.5Z" fill="#111317"/>
</svg>
