<svg width="170" height="151" viewBox="0 0 170 151" fill="none" xmlns="http://www.w3.org/2000/svg">
<path fill-rule="evenodd" clip-rule="evenodd" d="M78.75 15.6251C75.0566 15.6251 71.3993 16.3526 67.987 17.766C64.5747 19.1794 61.4743 21.2511 58.8626 23.8627C56.251 26.4744 54.1793 29.5749 52.7659 32.9871C51.3525 36.3994 50.625 40.0567 50.625 43.7501C50.625 47.4435 51.3525 51.1008 52.7659 54.5131C54.1793 57.9254 56.251 61.0258 58.8626 63.6375C61.4743 66.2491 64.5747 68.3208 67.987 69.7342C71.3993 71.1476 75.0566 71.8751 78.75 71.8751C86.2092 71.8751 93.3629 68.9119 98.6374 63.6375C103.912 58.363 106.875 51.2093 106.875 43.7501C106.875 36.2909 103.912 29.1372 98.6374 23.8627C93.3629 18.5883 86.2092 15.6251 78.75 15.6251ZM44.375 43.7501C44.3757 38.2297 45.706 32.7906 48.2533 27.893C50.8006 22.9954 54.4899 18.7834 59.0093 15.6131C63.5287 12.4429 68.7451 10.4077 74.2173 9.67979C79.6896 8.95187 85.2566 9.55261 90.4476 11.4312C95.6386 13.3097 100.301 16.4109 104.04 20.4723C107.779 24.5337 110.485 29.4358 111.928 34.7641C113.372 40.0924 113.512 45.69 112.335 51.0835C111.158 56.477 108.699 61.5077 105.167 65.7501L124.708 85.2918C125.015 85.5779 125.262 85.9229 125.432 86.3062C125.603 86.6895 125.695 87.1033 125.702 87.5229C125.71 87.9425 125.633 88.3593 125.476 88.7484C125.318 89.1375 125.084 89.491 124.788 89.7878C124.491 90.0845 124.137 90.3184 123.748 90.4756C123.359 90.6328 122.942 90.71 122.523 90.7026C122.103 90.6952 121.689 90.6033 121.306 90.4325C120.923 90.2617 120.578 90.0155 120.292 89.7084L100.75 70.1668C95.7301 74.348 89.6226 77.0121 83.143 77.847C76.6634 78.6819 70.0801 77.6531 64.1642 74.881C58.2483 72.1089 53.2449 67.7083 49.7401 62.1948C46.2353 56.6813 44.3743 50.2833 44.375 43.7501Z" fill="#E2E6EB"/>
<path d="M88.6249 37.125L81.7499 44L88.6249 50.875C89.3812 51.6312 89.3812 52.8687 88.6249 53.625C87.8687 54.3812 86.6312 54.3812 85.8749 53.625L78.9999 46.75L72.125 53.625C71.3687 54.3812 70.1312 54.3812 69.375 53.625C68.6187 52.8687 68.6187 51.6312 69.375 50.875L76.2499 44L69.375 37.125C68.6187 36.3688 68.6187 35.1313 69.375 34.375C70.1312 33.6188 71.3687 33.6188 72.125 34.375L78.9999 41.25L85.8749 34.375C86.6312 33.6188 87.8687 33.6188 88.6249 34.375C89.3812 35.1313 89.3812 36.3688 88.6249 37.125Z" fill="#E2E6EB"/>
<path d="M13.7596 131.455V146H11.7425L4.34904 135.332H4.2141V146H2.0195V131.455H4.05075L11.4513 142.136H11.5863V131.455H13.7596ZM20.9856 146.22C19.9629 146.22 19.0704 145.986 18.3081 145.517C17.5458 145.048 16.9539 144.393 16.5325 143.55C16.1111 142.707 15.9004 141.722 15.9004 140.595C15.9004 139.464 16.1111 138.474 16.5325 137.626C16.9539 136.779 17.5458 136.121 18.3081 135.652C19.0704 135.183 19.9629 134.949 20.9856 134.949C22.0083 134.949 22.9009 135.183 23.6632 135.652C24.4255 136.121 25.0173 136.779 25.4387 137.626C25.8601 138.474 26.0708 139.464 26.0708 140.595C26.0708 141.722 25.8601 142.707 25.4387 143.55C25.0173 144.393 24.4255 145.048 23.6632 145.517C22.9009 145.986 22.0083 146.22 20.9856 146.22ZM20.9927 144.438C21.6556 144.438 22.2048 144.262 22.6404 143.912C23.0761 143.562 23.398 143.095 23.6064 142.513C23.8194 141.93 23.926 141.289 23.926 140.588C23.926 139.892 23.8194 139.253 23.6064 138.67C23.398 138.083 23.0761 137.612 22.6404 137.257C22.2048 136.902 21.6556 136.724 20.9927 136.724C20.3251 136.724 19.7711 136.902 19.3308 137.257C18.8952 137.612 18.5708 138.083 18.3578 138.67C18.1494 139.253 18.0453 139.892 18.0453 140.588C18.0453 141.289 18.1494 141.93 18.3578 142.513C18.5708 143.095 18.8952 143.562 19.3308 143.912C19.7711 144.262 20.3251 144.438 20.9927 144.438ZM38.0265 135.091V136.795H32.0677V135.091H38.0265ZM33.6657 132.477H35.7893V142.797C35.7893 143.209 35.8509 143.519 35.974 143.727C36.0971 143.931 36.2557 144.071 36.4498 144.146C36.6487 144.217 36.8641 144.253 37.0961 144.253C37.2666 144.253 37.4157 144.241 37.5436 144.217C37.6714 144.194 37.7708 144.175 37.8419 144.161L38.2254 145.915C38.1023 145.962 37.9271 146.009 37.6998 146.057C37.4726 146.109 37.1885 146.137 36.8476 146.142C36.2888 146.152 35.768 146.052 35.2851 145.844C34.8021 145.635 34.4115 145.313 34.1132 144.878C33.8149 144.442 33.6657 143.895 33.6657 143.237V132.477ZM39.9756 146V135.091H42.0282V136.824H42.1418C42.3407 136.237 42.691 135.775 43.1929 135.439C43.6996 135.098 44.2725 134.928 44.9117 134.928C45.0443 134.928 45.2005 134.932 45.3804 134.942C45.5651 134.951 45.7095 134.963 45.8137 134.977V137.009C45.7284 136.985 45.5769 136.959 45.3591 136.93C45.1413 136.897 44.9235 136.881 44.7057 136.881C44.2038 136.881 43.7564 136.987 43.3634 137.2C42.9751 137.409 42.6674 137.7 42.4401 138.074C42.2128 138.443 42.0992 138.865 42.0992 139.338V146H39.9756ZM50.3284 146.241C49.6372 146.241 49.0122 146.114 48.4534 145.858C47.8947 145.598 47.452 145.221 47.1253 144.729C46.8034 144.236 46.6424 143.633 46.6424 142.918C46.6424 142.302 46.7607 141.795 46.9975 141.398C47.2342 141 47.5538 140.685 47.9563 140.453C48.3587 140.221 48.8086 140.046 49.3057 139.928C49.8029 139.809 50.3095 139.719 50.8256 139.658C51.479 139.582 52.0093 139.52 52.4165 139.473C52.8237 139.421 53.1196 139.338 53.3043 139.224C53.489 139.111 53.5813 138.926 53.5813 138.67V138.621C53.5813 138 53.4061 137.52 53.0557 137.179C52.7101 136.838 52.194 136.668 51.5074 136.668C50.7925 136.668 50.229 136.826 49.8171 137.143C49.4099 137.456 49.1282 137.804 48.9719 138.188L46.9762 137.733C47.2129 137.07 47.5586 136.535 48.0131 136.128C48.4724 135.716 49.0003 135.418 49.5969 135.233C50.1935 135.044 50.8209 134.949 51.479 134.949C51.9146 134.949 52.3763 135.001 52.864 135.105C53.3564 135.205 53.8157 135.389 54.2418 135.659C54.6727 135.929 55.0254 136.315 55.3 136.817C55.5747 137.314 55.712 137.96 55.712 138.756V146H53.6381V144.509H53.5529C53.4156 144.783 53.2096 145.053 52.935 145.318C52.6604 145.583 52.3076 145.804 51.8767 145.979C51.4459 146.154 50.9298 146.241 50.3284 146.241ZM50.7901 144.537C51.3772 144.537 51.8791 144.421 52.2958 144.189C52.7172 143.957 53.0368 143.654 53.2546 143.28C53.4771 142.901 53.5884 142.496 53.5884 142.065V140.659C53.5126 140.735 53.3659 140.806 53.148 140.872C52.935 140.934 52.6911 140.988 52.4165 141.036C52.1419 141.078 51.8744 141.118 51.614 141.156C51.3535 141.189 51.1357 141.218 50.9605 141.241C50.5486 141.294 50.1722 141.381 49.8313 141.504C49.4951 141.627 49.2252 141.805 49.0216 142.037C48.8228 142.264 48.7233 142.567 48.7233 142.946C48.7233 143.472 48.9175 143.869 49.3057 144.139C49.694 144.404 50.1888 144.537 50.7901 144.537ZM60.264 139.523V146H58.1404V135.091H60.1788V136.866H60.3137C60.5647 136.289 60.9577 135.825 61.4927 135.474C62.0325 135.124 62.7119 134.949 63.5311 134.949C64.2744 134.949 64.9255 135.105 65.4842 135.418C66.0429 135.725 66.4761 136.185 66.7839 136.795C67.0917 137.406 67.2456 138.161 67.2456 139.061V146H65.122V139.317C65.122 138.526 64.916 137.908 64.5041 137.463C64.0922 137.013 63.5263 136.788 62.8066 136.788C62.3142 136.788 61.8762 136.895 61.4927 137.108C61.1139 137.321 60.8133 137.634 60.5907 138.045C60.3729 138.453 60.264 138.945 60.264 139.523ZM77.8683 137.754L75.9436 138.095C75.8631 137.849 75.7352 137.615 75.56 137.392C75.3896 137.17 75.1576 136.987 74.864 136.845C74.5705 136.703 74.2035 136.632 73.7632 136.632C73.1618 136.632 72.66 136.767 72.2575 137.037C71.855 137.302 71.6538 137.645 71.6538 138.067C71.6538 138.431 71.7887 138.725 72.0586 138.947C72.3285 139.17 72.7641 139.352 73.3654 139.494L75.0984 139.892C76.1022 140.124 76.8503 140.482 77.3427 140.964C77.8351 141.447 78.0814 142.075 78.0814 142.847C78.0814 143.5 77.892 144.082 77.5132 144.594C77.1391 145.1 76.6159 145.498 75.9436 145.787C75.276 146.076 74.5018 146.22 73.6211 146.22C72.3995 146.22 71.4029 145.96 70.6311 145.439C69.8593 144.913 69.3858 144.168 69.2106 143.202L71.2632 142.889C71.391 143.424 71.6538 143.829 72.0515 144.104C72.4493 144.374 72.9677 144.509 73.6069 144.509C74.3029 144.509 74.8593 144.364 75.276 144.075C75.6926 143.782 75.901 143.424 75.901 143.003C75.901 142.662 75.7731 142.375 75.5174 142.143C75.2665 141.911 74.8806 141.736 74.3598 141.618L72.5132 141.213C71.4952 140.981 70.7423 140.612 70.2547 140.105C69.7717 139.598 69.5302 138.957 69.5302 138.18C69.5302 137.536 69.7101 136.973 70.07 136.49C70.4298 136.007 70.927 135.631 71.5615 135.361C72.1959 135.086 72.9227 134.949 73.7419 134.949C74.9208 134.949 75.8489 135.205 76.526 135.716C77.203 136.223 77.6505 136.902 77.8683 137.754ZM83.1909 146.241C82.4997 146.241 81.8747 146.114 81.3159 145.858C80.7572 145.598 80.3145 145.221 79.9878 144.729C79.6659 144.236 79.5049 143.633 79.5049 142.918C79.5049 142.302 79.6232 141.795 79.86 141.398C80.0967 141 80.4163 140.685 80.8188 140.453C81.2213 140.221 81.6711 140.046 82.1682 139.928C82.6654 139.809 83.172 139.719 83.6881 139.658C84.3415 139.582 84.8718 139.52 85.279 139.473C85.6862 139.421 85.9821 139.338 86.1668 139.224C86.3515 139.111 86.4438 138.926 86.4438 138.67V138.621C86.4438 138 86.2686 137.52 85.9182 137.179C85.5726 136.838 85.0565 136.668 84.3699 136.668C83.655 136.668 83.0915 136.826 82.6796 137.143C82.2724 137.456 81.9907 137.804 81.8344 138.188L79.8387 137.733C80.0754 137.07 80.4211 136.535 80.8756 136.128C81.3349 135.716 81.8628 135.418 82.4594 135.233C83.056 135.044 83.6834 134.949 84.3415 134.949C84.7771 134.949 85.2388 135.001 85.7265 135.105C86.2189 135.205 86.6782 135.389 87.1043 135.659C87.5352 135.929 87.8879 136.315 88.1625 136.817C88.4372 137.314 88.5745 137.96 88.5745 138.756V146H86.5006V144.509H86.4154C86.2781 144.783 86.0721 145.053 85.7975 145.318C85.5229 145.583 85.1701 145.804 84.7392 145.979C84.3084 146.154 83.7923 146.241 83.1909 146.241ZM83.6526 144.537C84.2397 144.537 84.7416 144.421 85.1583 144.189C85.5797 143.957 85.8993 143.654 86.1171 143.28C86.3396 142.901 86.4509 142.496 86.4509 142.065V140.659C86.3751 140.735 86.2284 140.806 86.0106 140.872C85.7975 140.934 85.5536 140.988 85.279 141.036C85.0044 141.078 84.7369 141.118 84.4765 141.156C84.216 141.189 83.9982 141.218 83.8231 141.241C83.4111 141.294 83.0347 141.381 82.6938 141.504C82.3576 141.627 82.0877 141.805 81.8841 142.037C81.6853 142.264 81.5858 142.567 81.5858 142.946C81.5858 143.472 81.78 143.869 82.1682 144.139C82.5565 144.404 83.0513 144.537 83.6526 144.537ZM95.5981 146.22C94.5422 146.22 93.6332 145.981 92.8708 145.503C92.1133 145.02 91.5309 144.355 91.1237 143.507C90.7165 142.66 90.5129 141.689 90.5129 140.595C90.5129 139.487 90.7212 138.509 91.1379 137.662C91.5546 136.81 92.1417 136.144 92.8993 135.666C93.6568 135.188 94.5494 134.949 95.5768 134.949C96.4054 134.949 97.144 135.103 97.7927 135.411C98.4414 135.714 98.9646 136.14 99.3623 136.689C99.7648 137.238 100.004 137.88 100.08 138.614H98.0129C97.8993 138.102 97.6388 137.662 97.2316 137.293C96.8292 136.923 96.2894 136.739 95.6123 136.739C95.0205 136.739 94.502 136.895 94.0569 137.207C93.6166 137.515 93.2733 137.955 93.0271 138.528C92.7809 139.097 92.6578 139.769 92.6578 140.545C92.6578 141.341 92.7785 142.027 93.02 142.605C93.2615 143.183 93.6024 143.63 94.0427 143.947C94.4878 144.265 95.011 144.423 95.6123 144.423C96.0148 144.423 96.3794 144.35 96.7061 144.203C97.0375 144.052 97.3145 143.836 97.537 143.557C97.7643 143.277 97.9229 142.941 98.0129 142.548H100.08C100.004 143.254 99.7743 143.884 99.3907 144.438C99.0072 144.991 98.4935 145.427 97.8495 145.744C97.2103 146.062 96.4599 146.22 95.5981 146.22ZM107.043 135.091V136.795H101.084V135.091H107.043ZM102.682 132.477H104.806V142.797C104.806 143.209 104.867 143.519 104.99 143.727C105.113 143.931 105.272 144.071 105.466 144.146C105.665 144.217 105.881 144.253 106.113 144.253C106.283 144.253 106.432 144.241 106.56 144.217C106.688 144.194 106.787 144.175 106.858 144.161L107.242 145.915C107.119 145.962 106.944 146.009 106.716 146.057C106.489 146.109 106.205 146.137 105.864 146.142C105.305 146.152 104.784 146.052 104.301 145.844C103.819 145.635 103.428 145.313 103.13 144.878C102.831 144.442 102.682 143.895 102.682 143.237V132.477ZM108.992 146V135.091H111.116V146H108.992ZM110.064 133.408C109.695 133.408 109.378 133.285 109.113 133.038C108.852 132.787 108.722 132.489 108.722 132.143C108.722 131.793 108.852 131.495 109.113 131.249C109.378 130.998 109.695 130.872 110.064 130.872C110.434 130.872 110.749 130.998 111.009 131.249C111.274 131.495 111.407 131.793 111.407 132.143C111.407 132.489 111.274 132.787 111.009 133.038C110.749 133.285 110.434 133.408 110.064 133.408ZM118.168 146.22C117.145 146.22 116.252 145.986 115.49 145.517C114.728 145.048 114.136 144.393 113.715 143.55C113.293 142.707 113.082 141.722 113.082 140.595C113.082 139.464 113.293 138.474 113.715 137.626C114.136 136.779 114.728 136.121 115.49 135.652C116.252 135.183 117.145 134.949 118.168 134.949C119.19 134.949 120.083 135.183 120.845 135.652C121.608 136.121 122.199 136.779 122.621 137.626C123.042 138.474 123.253 139.464 123.253 140.595C123.253 141.722 123.042 142.707 122.621 143.55C122.199 144.393 121.608 145.048 120.845 145.517C120.083 145.986 119.19 146.22 118.168 146.22ZM118.175 144.438C118.838 144.438 119.387 144.262 119.822 143.912C120.258 143.562 120.58 143.095 120.788 142.513C121.001 141.93 121.108 141.289 121.108 140.588C121.108 139.892 121.001 139.253 120.788 138.67C120.58 138.083 120.258 137.612 119.822 137.257C119.387 136.902 118.838 136.724 118.175 136.724C117.507 136.724 116.953 136.902 116.513 137.257C116.077 137.612 115.753 138.083 115.54 138.67C115.331 139.253 115.227 139.892 115.227 140.588C115.227 141.289 115.331 141.93 115.54 142.513C115.753 143.095 116.077 143.562 116.513 143.912C116.953 144.262 117.507 144.438 118.175 144.438ZM127.347 139.523V146H125.223V135.091H127.262V136.866H127.397C127.648 136.289 128.04 135.825 128.576 135.474C129.115 135.124 129.795 134.949 130.614 134.949C131.357 134.949 132.008 135.105 132.567 135.418C133.126 135.725 133.559 136.185 133.867 136.795C134.174 137.406 134.328 138.161 134.328 139.061V146H132.205V139.317C132.205 138.526 131.999 137.908 131.587 137.463C131.175 137.013 130.609 136.788 129.889 136.788C129.397 136.788 128.959 136.895 128.576 137.108C128.197 137.321 127.896 137.634 127.674 138.045C127.456 138.453 127.347 138.945 127.347 139.523ZM143.012 150.091C142.694 150.091 142.406 150.065 142.145 150.013C141.885 149.965 141.691 149.913 141.563 149.857L142.074 148.116C142.462 148.221 142.808 148.266 143.111 148.251C143.414 148.237 143.682 148.124 143.914 147.911C144.15 147.697 144.359 147.349 144.539 146.866L144.801 146.142L140.81 135.091H143.083L145.845 143.557H145.959L148.722 135.091H151.002L146.506 147.456C146.298 148.024 146.033 148.505 145.711 148.898C145.389 149.295 145.005 149.594 144.56 149.793C144.115 149.991 143.599 150.091 143.012 150.091ZM156.928 146.22C155.853 146.22 154.928 145.991 154.151 145.531C153.379 145.067 152.783 144.416 152.361 143.578C151.945 142.735 151.736 141.748 151.736 140.616C151.736 139.499 151.945 138.514 152.361 137.662C152.783 136.81 153.37 136.144 154.123 135.666C154.88 135.188 155.766 134.949 156.779 134.949C157.394 134.949 157.991 135.051 158.569 135.254C159.146 135.458 159.665 135.777 160.124 136.213C160.583 136.649 160.946 137.214 161.211 137.911C161.476 138.602 161.608 139.442 161.608 140.432V141.185H152.937V139.594H159.528C159.528 139.035 159.414 138.54 159.187 138.109C158.959 137.674 158.64 137.33 158.228 137.08C157.821 136.829 157.342 136.703 156.793 136.703C156.197 136.703 155.676 136.85 155.231 137.143C154.79 137.432 154.449 137.811 154.208 138.28C153.971 138.744 153.853 139.248 153.853 139.793V141.036C153.853 141.765 153.981 142.385 154.236 142.896C154.497 143.408 154.859 143.798 155.323 144.068C155.787 144.333 156.329 144.466 156.949 144.466C157.352 144.466 157.719 144.409 158.05 144.295C158.382 144.177 158.668 144.002 158.91 143.77C159.151 143.538 159.336 143.251 159.464 142.911L161.474 143.273C161.313 143.865 161.024 144.383 160.607 144.828C160.195 145.268 159.677 145.612 159.052 145.858C158.431 146.099 157.724 146.22 156.928 146.22ZM168.657 135.091V136.795H162.698V135.091H168.657ZM164.296 132.477H166.42V142.797C166.42 143.209 166.481 143.519 166.604 143.727C166.728 143.931 166.886 144.071 167.08 144.146C167.279 144.217 167.495 144.253 167.727 144.253C167.897 144.253 168.046 144.241 168.174 144.217C168.302 144.194 168.401 144.175 168.472 144.161L168.856 145.915C168.733 145.962 168.558 146.009 168.33 146.057C168.103 146.109 167.819 146.137 167.478 146.142C166.919 146.152 166.398 146.052 165.916 145.844C165.433 145.635 165.042 145.313 164.744 144.878C164.445 144.442 164.296 143.895 164.296 143.237V132.477Z" fill="#C9CFD8"/>
</svg>
