<svg width="20" height="20" viewBox="0 0 20 20" fill="none" xmlns="http://www.w3.org/2000/svg">
<path d="M6.48543 14.2593C5.56844 14.7858 3.16418 15.8608 4.62854 17.2061C5.34387 17.8633 6.14056 18.3333 7.14219 18.3333H12.8577C13.8594 18.3333 14.656 17.8633 15.3714 17.2061C16.8357 15.8608 14.4315 14.7858 13.5145 14.2593C11.3642 13.0246 8.63571 13.0246 6.48543 14.2593Z" stroke="black" stroke-width="2" stroke-linecap="round" stroke-linejoin="round"/>
<path d="M12.9167 8.33341C12.9167 9.94425 11.6109 11.2501 10 11.2501C8.38921 11.2501 7.08337 9.94425 7.08337 8.33341C7.08337 6.72258 8.38921 5.41675 10 5.41675C11.6109 5.41675 12.9167 6.72258 12.9167 8.33341Z" stroke="black" stroke-width="2"/>
<path d="M2.37829 13.3334C1.9208 12.3054 1.66663 11.1676 1.66663 9.97058C1.66663 5.38449 5.39758 1.66675 9.99996 1.66675C14.6023 1.66675 18.3333 5.38449 18.3333 9.97058C18.3333 11.1676 18.0791 12.3054 17.6216 13.3334" stroke="black" stroke-width="2" stroke-linecap="round"/>
</svg>
