<svg width="1440" height="812" viewBox="0 0 1440 812" fill="none" xmlns="http://www.w3.org/2000/svg">
<g clip-path="url(#clip0_91_58)">
<rect width="1440" height="812" fill="white"/>
<g filter="url(#filter0_f_91_58)">
<path fill-rule="evenodd" clip-rule="evenodd" d="M362.033 226.727C591.745 226.727 747 441.76 747 671.475C747 914.29 604.844 1159.73 362.033 1159.73C95.7338 1159.73 -114 937.778 -114 671.475C-114 417.06 107.621 226.727 362.033 226.727Z" fill="#FFC700" fill-opacity="0.12"/>
</g>
<g filter="url(#filter1_f_91_58)">
<path fill-rule="evenodd" clip-rule="evenodd" d="M1172.03 165.727C1401.75 165.727 1557 380.761 1557 610.475C1557 853.29 1414.84 1098.73 1172.03 1098.73C905.734 1098.73 696 876.779 696 610.475C696 356.06 917.621 165.727 1172.03 165.727Z" fill="white" fill-opacity="0.12"/>
</g>
<g filter="url(#filter2_f_91_58)">
<path fill-rule="evenodd" clip-rule="evenodd" d="M8.95187 -264.273C180.235 -264.273 296 -103.862 296 67.501C296 248.636 190.003 431.727 8.95187 431.727C-189.613 431.727 -346 266.158 -346 67.501C-346 -122.288 -180.749 -264.273 8.95187 -264.273Z" fill="#117ADC" fill-opacity="0.2"/>
</g>
<g filter="url(#filter3_f_91_58)">
<path fill-rule="evenodd" clip-rule="evenodd" d="M1178.67 17.7268C1411.58 17.7268 1569 240.366 1569 478.206C1569 729.609 1424.86 983.727 1178.67 983.727C908.657 983.727 696 753.928 696 478.206C696 214.792 920.71 17.7268 1178.67 17.7268Z" fill="#117ADC" fill-opacity="0.2"/>
</g>
<g opacity="0.06">
<path d="M398.484 -272.797V575.629L0.996338 734.774" stroke="black" stroke-width="1.0683" stroke-linecap="round" stroke-linejoin="round"/>
<path d="M462.863 -272.797V575.629L0.996338 806.764" stroke="black" stroke-width="1.0683" stroke-linecap="round" stroke-linejoin="round"/>
<path d="M527.241 -272.797V575.629L0.996338 926.712" stroke="black" stroke-width="1.0683" stroke-linecap="round" stroke-linejoin="round"/>
<path d="M591.628 -272.798V575.629L1.30591 1166.2" stroke="black" stroke-width="1.0683" stroke-linecap="round" stroke-linejoin="round"/>
<path d="M656.002 -272.798V575.629L360.587 1166.2" stroke="black" stroke-width="1.0683" stroke-linecap="round" stroke-linejoin="round"/>
<path d="M720.382 -272.798V575.629L719.878 1166.2" stroke="black" stroke-width="1.0683" stroke-linecap="round" stroke-linejoin="round"/>
<path d="M784.766 -272.798V575.629L1079.16 1166.2" stroke="black" stroke-width="1.0683" stroke-linecap="round" stroke-linejoin="round"/>
<path d="M849.142 -272.798V575.629L1438.45 1166.2" stroke="black" stroke-width="1.0683" stroke-linecap="round" stroke-linejoin="round"/>
<path d="M913.53 -272.798V575.629L1440 927.262" stroke="black" stroke-width="1.0683" stroke-linecap="round" stroke-linejoin="round"/>
<path d="M977.905 -272.798V575.629L1440 807.071" stroke="black" stroke-width="1.0683" stroke-linecap="round" stroke-linejoin="round"/>
<path d="M1042.29 -272.798V575.629L1440 734.974" stroke="black" stroke-width="1.0683" stroke-linecap="round" stroke-linejoin="round"/>
<path d="M1106.67 -272.798V575.629L1440 686.913" stroke="black" stroke-width="1.0683" stroke-linecap="round" stroke-linejoin="round"/>
<path d="M1171.05 -272.798V575.629L1440 652.591" stroke="black" stroke-width="1.0683" stroke-linecap="round" stroke-linejoin="round"/>
<path d="M1235.43 -272.798V575.629L1440 626.849" stroke="black" stroke-width="1.0683" stroke-linecap="round" stroke-linejoin="round"/>
<path d="M1299.81 -272.798V575.629L1440 606.827" stroke="black" stroke-width="1.0683" stroke-linecap="round" stroke-linejoin="round"/>
<path d="M1364.19 -272.798V575.63L1439.99 590.816" stroke="black" stroke-width="1.0683" stroke-linecap="round" stroke-linejoin="round"/>
<path d="M1428.56 -272.798V575.63L1440 577.709" stroke="black" stroke-width="1.0683" stroke-linecap="round" stroke-linejoin="round"/>
<path d="M0.996338 652.486L269.723 575.629V-272.797" stroke="black" stroke-width="1.0683" stroke-linecap="round" stroke-linejoin="round"/>
<path d="M334.101 -272.797V575.629L0.996338 686.776" stroke="black" stroke-width="1.0683" stroke-linecap="round" stroke-linejoin="round"/>
<path d="M205.347 -272.797V575.629L0.996338 626.774" stroke="black" stroke-width="1.0683" stroke-linecap="round" stroke-linejoin="round"/>
<path d="M140.963 -272.798V575.629L1 606.763" stroke="black" stroke-width="1.0683" stroke-linecap="round" stroke-linejoin="round"/>
<path d="M76.5832 -272.797V575.629L0.996338 590.759" stroke="black" stroke-width="1.0683" stroke-linecap="round" stroke-linejoin="round"/>
<path d="M12.1981 -272.797V575.629L0.996338 577.668" stroke="black" stroke-width="1.0683" stroke-linecap="round" stroke-linejoin="round"/>
<path d="M0.996338 511.25H1440" stroke="black" stroke-width="1.0683" stroke-linecap="round" stroke-linejoin="round"/>
<path d="M0.996338 446.867H1440" stroke="black" stroke-width="1.0683" stroke-linecap="round" stroke-linejoin="round"/>
<path d="M0.996338 382.488H1440" stroke="black" stroke-width="1.0683" stroke-linecap="round" stroke-linejoin="round"/>
<path d="M0.996338 318.111H1440" stroke="black" stroke-width="1.0683" stroke-linecap="round" stroke-linejoin="round"/>
<path d="M0.996338 253.726H1440" stroke="black" stroke-width="1.0683" stroke-linecap="round" stroke-linejoin="round"/>
<path d="M0.996338 189.349H1440" stroke="black" stroke-width="1.0683" stroke-linecap="round" stroke-linejoin="round"/>
<path d="M0.996338 124.972H1440" stroke="black" stroke-width="1.0683" stroke-linecap="round" stroke-linejoin="round"/>
<path d="M0.996338 60.5854H1440" stroke="black" stroke-width="1.0683" stroke-linecap="round" stroke-linejoin="round"/>
<path d="M1440 809.11H0.996338" stroke="black" stroke-width="1.0683" stroke-linecap="round" stroke-linejoin="round"/>
<path d="M1440 770.074H0.996338" stroke="black" stroke-width="1.0683" stroke-linecap="round" stroke-linejoin="round"/>
<path d="M1440 738.625H0.996338" stroke="black" stroke-width="1.0683" stroke-linecap="round" stroke-linejoin="round"/>
<path d="M1440 712.752H0.996338" stroke="black" stroke-width="1.0683" stroke-linecap="round" stroke-linejoin="round"/>
<path d="M1440 581.414H0.996338" stroke="black" stroke-width="1.0683" stroke-linecap="round" stroke-linejoin="round"/>
<path d="M1440 575.63H0.996338" stroke="black" stroke-width="1.0683" stroke-linecap="round" stroke-linejoin="round"/>
<path d="M1440 594.696H0.996338" stroke="black" stroke-width="1.0683" stroke-linecap="round" stroke-linejoin="round"/>
<path d="M1440 587.745H0.996338" stroke="black" stroke-width="1.0683" stroke-linecap="round" stroke-linejoin="round"/>
<path d="M1440 656.868H0.996338" stroke="black" stroke-width="1.0683" stroke-linecap="round" stroke-linejoin="round"/>
<path d="M1440 691.088H0.996338" stroke="black" stroke-width="1.0683" stroke-linecap="round" stroke-linejoin="round"/>
<path d="M1440 610.888H0.996338" stroke="black" stroke-width="1.0683" stroke-linecap="round" stroke-linejoin="round"/>
<path d="M1440 602.373H0.996338" stroke="black" stroke-width="1.0683" stroke-linecap="round" stroke-linejoin="round"/>
<path d="M1440 643.119H0.996338" stroke="black" stroke-width="1.0683" stroke-linecap="round" stroke-linejoin="round"/>
<path d="M1440 631.052H0.996338" stroke="black" stroke-width="1.0683" stroke-linecap="round" stroke-linejoin="round"/>
<path d="M1440 620.387H0.996338" stroke="black" stroke-width="1.0683" stroke-linecap="round" stroke-linejoin="round"/>
<path d="M1440 672.691H0.996338" stroke="black" stroke-width="1.0683" stroke-linecap="round" stroke-linejoin="round"/>
</g>
</g>
<defs>
<filter id="filter0_f_91_58" x="-314" y="26.7266" width="1261" height="1333" filterUnits="userSpaceOnUse" color-interpolation-filters="sRGB">
<feFlood flood-opacity="0" result="BackgroundImageFix"/>
<feBlend mode="normal" in="SourceGraphic" in2="BackgroundImageFix" result="shape"/>
<feGaussianBlur stdDeviation="100" result="effect1_foregroundBlur_91_58"/>
</filter>
<filter id="filter1_f_91_58" x="496" y="-34.2732" width="1261" height="1333" filterUnits="userSpaceOnUse" color-interpolation-filters="sRGB">
<feFlood flood-opacity="0" result="BackgroundImageFix"/>
<feBlend mode="normal" in="SourceGraphic" in2="BackgroundImageFix" result="shape"/>
<feGaussianBlur stdDeviation="100" result="effect1_foregroundBlur_91_58"/>
</filter>
<filter id="filter2_f_91_58" x="-546" y="-464.273" width="1042" height="1096" filterUnits="userSpaceOnUse" color-interpolation-filters="sRGB">
<feFlood flood-opacity="0" result="BackgroundImageFix"/>
<feBlend mode="normal" in="SourceGraphic" in2="BackgroundImageFix" result="shape"/>
<feGaussianBlur stdDeviation="100" result="effect1_foregroundBlur_91_58"/>
</filter>
<filter id="filter3_f_91_58" x="496" y="-182.273" width="1273" height="1366" filterUnits="userSpaceOnUse" color-interpolation-filters="sRGB">
<feFlood flood-opacity="0" result="BackgroundImageFix"/>
<feBlend mode="normal" in="SourceGraphic" in2="BackgroundImageFix" result="shape"/>
<feGaussianBlur stdDeviation="100" result="effect1_foregroundBlur_91_58"/>
</filter>
<clipPath id="clip0_91_58">
<rect width="1440" height="812" fill="white"/>
</clipPath>
</defs>
</svg>
