<svg width="36" height="24" viewBox="0 0 36 24" fill="none" xmlns="http://www.w3.org/2000/svg">
<g clip-path="url(#clip0_1_469)">
<path d="M34.3128 3.74333C34.1171 3.01981 33.7352 2.36019 33.2052 1.83017C32.6752 1.30015 32.0156 0.918215 31.292 0.7224C28.6432 0 17.9827 0 17.9827 0C17.9827 0 7.32164 0.0218666 4.67284 0.744267C3.94931 0.940093 3.2897 1.32205 2.7597 1.85209C2.2297 2.38214 1.8478 3.04178 1.65204 3.76533C0.850842 8.47173 0.540042 15.6432 1.67404 20.1613C1.86983 20.8849 2.25173 21.5445 2.78173 22.0745C3.31173 22.6045 3.97132 22.9865 4.69484 23.1823C7.34364 23.9047 18.0044 23.9047 18.0044 23.9047C18.0044 23.9047 28.6651 23.9047 31.3138 23.1823C32.0373 22.9865 32.6969 22.6045 33.227 22.0745C33.757 21.5445 34.1389 20.8849 34.3347 20.1613C35.1798 15.4483 35.4402 8.2812 34.3128 3.74333Z" fill="#FF0000"/>
<path d="M14.5895 17.0746L23.4332 11.9522L14.5895 6.82983V17.0746Z" fill="white"/>
</g>
<defs>
<clipPath id="clip0_1_469">
<rect width="34.1333" height="24" fill="white" transform="translate(0.93335)"/>
</clipPath>
</defs>
</svg>
